<svg xmlns="http://www.w3.org/2000/svg" xml:space="preserve" width="1500" height="785" data-id="lg_PBsuB7nL7Es6J1q3Vp" data-version="1" viewBox="0 0 1500 785"><g data-padding="20"><path fill="#0191da" d="M1042.48 775.054c-98.705 0-267.467-102.485-420.02-255.036-93.915-93.916-170.107-194.553-214.544-283.513-47.21-94.421-53.091-166.328-16.717-202.701q23.856-23.857 66.194-23.857c98.705 0 267.553 102.484 420.02 255.035 94 93.916 170.192 194.553 214.714 283.513 47.126 94.421 53.09 166.327 16.632 202.701q-23.689 23.774-66.194 23.857M457.478 43.549q-28.561 0-42.507 13.945c-24.612 24.613-15.96 85.936 23.019 163.975 42.84 85.852 116.764 183.38 208.244 274.777 144.32 144.402 307.287 245.207 396.246 245.207q28.561 0 42.507-13.945c24.612-24.613 15.96-85.936-23.019-163.975-42.84-85.852-116.764-183.38-208.244-274.777C709.404 144.353 546.437 43.548 457.478 43.548"/><path fill="#0191da" d="M457.478 775.054q-42.422 0-66.195-23.858c-36.457-36.374-30.493-108.365 16.633-202.7 44.522-88.793 120.713-189.598 214.545-283.515C775.013 112.432 943.86 9.946 1042.48 9.946q42.422 0 66.28 23.858c36.373 36.374 30.492 108.365-16.718 202.7-44.438 88.793-120.63 189.598-214.545 283.514-152.551 152.55-321.314 255.036-420.019 255.036M1042.48 43.548c-88.876 0-251.927 100.805-396.246 245.207-91.396 91.397-165.403 189.009-208.245 274.777-38.978 78.04-47.63 139.278-23.018 163.976q13.946 13.944 42.507 13.944c88.96 0 251.927-100.805 396.246-245.207 91.48-91.397 165.403-189.009 208.245-274.777 38.978-78.04 47.63-139.278 23.018-163.976q-13.946-13.86-42.507-13.944"/><path fill="#0191da" d="M749.98 450.211c-30.665-1.656-54.681-27.002-54.681-57.711s24.016-56.055 54.68-57.711c30.664 1.656 54.68 27.002 54.68 57.711s-24.016 56.055-54.68 57.711m0-81.82c-13.315 0-24.11 10.794-24.11 24.109s10.795 24.11 24.11 24.11 24.11-10.795 24.11-24.11-10.795-24.11-24.11-24.11"/><g transform="translate(400.296 400.296)scale(.97452)"><filter id="a" width="140%" height="140%" x="-20%" y="-20%"><feGaussianBlur in="SourceAlpha"/><feOffset result="oBlur"/><feFlood flood-color="#f75cff" flood-opacity="1"/><feComposite in2="oBlur" operator="in"/><feMerge><feMergeNode/><feMergeNode in="SourceGraphic"/></feMerge></filter><g filter="url(#a)"><rect width="290" height="375.16" x="216.935" y="-192.07" fill="none" rx="0" ry="0"/><path fill="#fff" d="M475.225 99.3h-64.07l-95.95-110.88V99.3h-67.4v-228.41h64.08l95.95 112.55v-112.55h67.39Z"/></g></g><path fill="transparent" stroke="transparent" d="M357.5 0h785v785h-785z"/></g></svg>